<?xml version="1.0" encoding="utf-8"?>
<!-- Generator: Adobe Illustrator 16.0.0, SVG Export Plug-In . SVG Version: 6.00 Build 0)  -->
<!DOCTYPE svg PUBLIC "-//W3C//DTD SVG 1.1//EN" "http://www.w3.org/Graphics/SVG/1.1/DTD/svg11.dtd">
<svg version="1.1" id="Layer_1" xmlns="http://www.w3.org/2000/svg" xmlns:xlink="http://www.w3.org/1999/xlink" x="0px" y="0px"
	 width="138.746px" height="180.371px" viewBox="0 0 138.746 180.371" enable-background="new 0 0 138.746 180.371"
	 xml:space="preserve">
<g>
	<g>
		<rect x="18.654" y="135.033" fill="#5CA63C" width="2.83" height="2.771"/>
		<path fill="#5CA63C" d="M23.814,140.97c-0.436-0.352-0.893-0.643-1.372-0.868c-0.5-0.166-1.022-0.247-1.567-0.247h-1.546
			c-0.545,0-1.11,0.081-1.655,0.247c-0.957,0.476-1.742,1.179-2.09,2.089c-0.238,0.479-0.369,0.975-0.369,1.49v3.041H8.813
			c-0.196,0-0.348-0.063-0.458-0.186c-0.13-0.063-0.218-0.146-0.283-0.25c-0.108-0.123-0.175-0.27-0.175-0.436v-4.447h-3.2v4.447
			c0,0.52,0.13,1.034,0.37,1.553c0.174,0.477,0.436,0.869,0.807,1.222c0.436,0.352,0.893,0.601,1.371,0.786
			c0.501,0.229,1.024,0.352,1.568,0.352H24.99v-6.082c0-0.518-0.13-1.014-0.37-1.49C24.446,141.736,24.184,141.322,23.814,140.97z
			 M21.789,146.722h-3.375v-3.041c0-0.249,0.196-0.602,0.459-0.704c0.108-0.063,0.26-0.081,0.457-0.081h1.547
			c0.371,0,0.631,0.104,0.739,0.353c0.108,0.163,0.175,0.31,0.175,0.435L21.789,146.722L21.789,146.722z"/>
		<path fill="#5CA63C" d="M57.94,140.102c-0.479-0.166-1.001-0.247-1.546-0.247h-1.458c-0.546,0-1.067,0.081-1.568,0.247
			c-1.022,0.476-1.764,1.158-2.198,2.089c-0.175,0.52-0.262,1.058-0.262,1.572v2.959h-2.244h-0.871h-4.05h-0.871h-4.053H37.95
			h-2.244v-11.648h-3.2v11.648h-1.742v-9.91h-3.201v9.91h-0.828v3.041H37.95h0.869h4.053h0.871h4.05h0.871h11.76v-3.041h-6.314
			v-2.959c0-0.229,0.064-0.436,0.174-0.62c0.196-0.166,0.414-0.247,0.653-0.247h1.458c0.238,0,0.457,0.081,0.631,0.247
			c0.131,0.188,0.197,0.394,0.197,0.62v0.083h3.201v-0.083c0-0.518-0.088-1.055-0.283-1.572
			C59.727,141.26,58.986,140.578,57.94,140.102z"/>
		<path fill="#5CA63C" d="M66.325,134.887h-1.372v-0.331c0-0.063,0.021-0.145,0.088-0.248l0.086-0.063
			c0.065-0.021,0.131-0.041,0.196-0.041h0.806V132.9h-0.806c-0.501,0-0.937,0.166-1.284,0.519c-0.152,0.146-0.262,0.312-0.371,0.519
			c-0.064,0.187-0.086,0.394-0.086,0.619v0.331h-0.371v1.304h3.114V134.887L66.325,134.887z"/>
		<polygon fill="#5CA63C" points="76.627,146.639 73.6,146.639 73.6,146.722 71.355,146.722 71.355,135.074 68.155,135.074 
			68.155,146.722 66.412,146.722 66.412,136.812 63.213,136.812 63.213,146.722 62.385,146.722 62.385,149.763 73.6,149.763 
			74.469,149.763 79.916,149.763 79.916,135.074 76.627,135.074 		"/>
		<rect x="89.909" y="135.074" width="2.832" height="2.771"/>
		<rect x="106.286" y="151.502" width="2.854" height="2.772"/>
		<rect x="109.859" y="151.502" width="2.83" height="2.772"/>
		<path d="M118.918,140.165c-0.502,0.165-0.916,0.435-1.285,0.786c-0.369,0.393-0.674,0.826-0.914,1.304
			c-0.174,0.455-0.262,0.952-0.262,1.469v3.041h-2.244v-0.041h-2.938v-6.868h-3.289v6.868h-2.242h-0.869h-4.053h-0.871H95.9h-0.869
			h-2.244v-6.952h-3.201v10.43c0,0.104-0.021,0.248-0.088,0.436c-0.109,0.229-0.369,0.352-0.719,0.352h-2.197v3.125h2.197
			c0.545,0,1.045-0.125,1.547-0.353c0.5-0.166,0.914-0.455,1.283-0.869c0.371-0.354,0.676-0.745,0.916-1.221
			c0.174-0.455,0.262-0.952,0.262-1.47v-0.437h2.244H95.9h4.051h0.871h4.053h0.869h7.602v0.042h13.437v-9.992h-6.207
			C119.963,139.812,119.418,139.936,118.918,140.165z M123.489,146.763h-3.832v-3.041c0-0.186,0.021-0.331,0.088-0.436
			c0.238-0.229,0.457-0.353,0.826-0.353h2.918V146.763z"/>
		<rect x="128.545" y="135.074" width="3.2" height="14.688"/>
		<path d="M131.723,132.572h-1.459v-0.354c0-0.104,0.065-0.229,0.174-0.289c0.066-0.021,0.109-0.042,0.176-0.042h0.826v-1.304
			h-0.826c-0.85,0-1.721,0.477-1.721,1.635v0.354h-0.371v1.303h3.201V132.572z"/>
	</g>
	<g>
		<g>
			<g>
				<path fill="#5CA63C" d="M75.596,173.371v-13.075h8.492v2.377h-6.265v3.571h5.927v2.283h-5.927v4.844H75.596z"/>
				<path fill="#5CA63C" d="M99.35,173.371h-8.846c0-4.358,0-8.735,0-13.094h8.846v2.396h-6.635v3.011h6.399v2.301h-6.399v2.957
					h6.635V173.371z"/>
				<path fill="#5CA63C" d="M114.801,173.371h-8.849c0-4.358,0-8.735,0-13.094h8.849v2.396h-6.635v3.011h6.397v2.301h-6.397v2.957
					h6.635V173.371L114.801,173.371z"/>
				<path fill="#5CA63C" d="M131.838,166.711c0.051,3.313-1.771,6.659-5.91,6.659c-1.453,0-3.189,0-4.644,0v-13.094
					c1.453,0,3.188,0,4.644,0C129.98,160.277,131.786,163.475,131.838,166.711z M123.498,170.996h2.43
					c2.688,0,3.748-2.17,3.699-4.303c-0.052-2.039-1.134-4.078-3.699-4.078h-2.43V170.996z"/>
			</g>
		</g>
		<path d="M15.85,173.371l-4.01-9.385l-2.834,6.653h2.834v2.729H4.604l0.883-1.908l5.003-11.028h2.688l5.582,12.938H15.85z"/>
		<path d="M20.744,173.371v-12.922h2.674l3.924,8.479l4.27-8.479h2.453v12.922h-2.723v-6.834l-3.043,6.834h-1.926l-2.906-6.67v6.67
			H20.744z"/>
		<path d="M41.693,173.371v-5.678l-5.507-7.261h4.06l2.883,3.798L46,160.432h4.071l-5.506,7.261v5.678H41.693z"/>
		<path d="M60.434,163.068l-6.512,0.016v-2.635h9.861v2.604l-6.339,7.54h6.339v2.778h-9.861v-2.778L60.434,163.068z"/>
	</g>
	<g>
		<path fill="#E6E7E8" d="M96.78,17.333c0.537,0.844,0.188,1.702-0.424,2.503c-0.812,1.189-2.272,2.948-2.574,3.387
			c-0.479,0.694-1.055,1.323-1.705,1.866c-0.313,0.282-0.524,0.449-0.875,0.688c-0.271,0.153-0.401,0.319-0.817,0.476l0.002,0.001
			c-4.914,1.829-4.504,4.846-4.504,4.846c0.11-0.189,0.223-0.357,0.328-0.517c0.16-1.021,0.83-2.09,2.639-2.781
			c5.318-2.032,7.805-7.125,7.805-7.125c0.303,0.833-0.453,1.816-0.453,1.816c1.02-0.954,2.094-5.209,2.094-5.209v2.223
			c1.498-2.359,1.158-4.185,0.875-4.987c-1.168,0.192-2.426,0.452-3.752,0.798c-0.297,0.133-0.584,0.264-0.863,0.385
			c0.685,0.003,1.429,0.054,2.257,0.177c0,0-3.132,0.167-3.689,2.061C93.118,17.941,96.018,16.133,96.78,17.333z"/>
		
			<radialGradient id="SVGID_1_" cx="436.1328" cy="603.2681" r="29.3672" gradientTransform="matrix(1 0 0 1 -328.5391 -509)" gradientUnits="userSpaceOnUse">
			<stop  offset="0" style="stop-color:#FFDF00"/>
			<stop  offset="1" style="stop-color:#FAA819"/>
		</radialGradient>
		<path fill="url(#SVGID_1_)" d="M86.28,112.283c-0.983-5.678,1.726-9.756,5.944-13.211c4.834-3.957,10.488-6.479,15.978-9.304
			c4.957-2.551,9.996-4.981,14.44-8.407c3.837-2.957,7.154-6.324,8.4-11.242c0.545-2.141,0.594-4.282,0.287-6.666
			c-0.445,1.205-0.818,2.224-1.201,3.238c-1.272,3.375-3.639,5.912-6.371,8.125c-5.438,4.406-11.84,7.078-18.121,9.959
			c-5.225,2.396-10.479,4.723-15.225,8.026c-4.521,3.149-8.252,6.931-9.844,12.396c-0.801,2.75-0.984,5.526-0.676,8.4
			c0.434,3.99,1.625,7.73,3.18,11.486c0.979-1.604,1.842-3.195,2.869-4.674c3.068-4.411,7.082-7.785,11.709-10.481
			c5.586-3.255,11.713-5.219,17.672-7.599c3.637-1.452,7.264-3.029,10.646-4.978c5.244-3.02,8.459-7.608,9.146-13.758
			c0.154-1.382,0.211-2.774,0.322-4.264c-1.095,2.081-1.992,4.096-3.156,5.942c-2.664,4.227-6.597,7.004-11.153,8.782
			c-4.906,1.913-9.935,3.513-14.906,5.248c-4.853,1.695-9.498,3.831-13.535,7.035C90.42,108.144,88.42,110.283,86.28,112.283z"/>
		
			<radialGradient id="SVGID_2_" cx="435.9238" cy="605.5444" r="28.0263" gradientTransform="matrix(1 0 0 1 -328.5391 -509)" gradientUnits="userSpaceOnUse">
			<stop  offset="0" style="stop-color:#FFDF00"/>
			<stop  offset="0.6564" style="stop-color:#E78F1A"/>
		</radialGradient>
		<path fill="url(#SVGID_2_)" d="M130.131,71.25c-1.273,3.374-3.638,5.91-6.371,8.125c-5.438,4.406-11.84,7.078-18.121,9.958
			c-5.225,2.396-10.479,4.723-15.225,8.026c-4.521,3.149-8.251,6.93-9.843,12.396c-0.353,1.206-0.563,2.42-0.688,3.642
			c0.008,0.067,0.006,0.135,0.014,0.203c0.436,3.99,1.625,7.731,3.18,11.486c0.979-1.604,1.842-3.195,2.869-4.674
			c3.068-4.411,7.082-7.785,11.709-10.481c5.586-3.255,11.713-5.219,17.672-7.599c3.637-1.452,7.264-3.029,10.646-4.979
			c4.84-2.785,7.926-6.929,8.914-12.381c-0.855,1.694-1.642,3.335-2.603,4.859c-2.664,4.227-6.596,7.004-11.153,8.781
			c-4.906,1.914-9.935,3.512-14.906,5.248c-4.852,1.694-9.496,3.832-13.537,7.035c-2.268,1.801-4.268,3.938-6.404,5.938
			c-0.289-1.66-0.254-3.182,0.035-4.594c-0.012,0.014-0.021,0.024-0.035,0.035c-0.984-5.678,1.725-9.756,5.943-13.211
			c4.834-3.957,10.488-6.479,15.977-9.303c4.959-2.551,9.996-4.982,14.441-8.406c3.838-2.957,7.154-6.326,8.4-11.244
			c0.145-0.561,0.248-1.123,0.325-1.689c-0.019-0.141-0.021-0.275-0.038-0.418C130.885,69.215,130.514,70.236,130.131,71.25z"/>
		<g>
			
				<radialGradient id="SVGID_3_" cx="452.7754" cy="551.5308" r="0.5024" gradientTransform="matrix(1 0 0 1 -328.5391 -509)" gradientUnits="userSpaceOnUse">
				<stop  offset="0" style="stop-color:#FFDF00"/>
				<stop  offset="0.7179" style="stop-color:#E8921A"/>
				<stop  offset="0.8128" style="stop-color:#E78F1A"/>
			</radialGradient>
			<path fill="url(#SVGID_3_)" d="M124.465,43.203c-0.211-0.867-0.455-1.344-0.455-1.344L124.465,43.203z"/>
			
				<radialGradient id="SVGID_4_" cx="429.2803" cy="587.5249" r="31.3311" gradientTransform="matrix(1 0 0 1 -328.5391 -509)" gradientUnits="userSpaceOnUse">
				<stop  offset="0" style="stop-color:#FFDF00"/>
				<stop  offset="0.7179" style="stop-color:#E8921A"/>
				<stop  offset="0.8128" style="stop-color:#E78F1A"/>
			</radialGradient>
			<path fill="url(#SVGID_4_)" d="M78.678,94.734c3.961-6.179,9.428-10.752,15.772-14.298c4.41-2.463,8.912-4.763,13.358-7.163
				c4.81-2.594,9.365-5.55,13.125-9.576c3.144-3.365,5.525-7.164,6.558-11.567l-3.026-8.927c0.973,3.97,1.271,16.246-25.552,29.856
				c-32.686,16.585-23.829,40.788-23.829,40.788c-0.189-1.891-0.423-3.555-0.515-5.229C74.295,103.513,75.973,98.951,78.678,94.734z
				"/>
		</g>
		<path fill="#D1D3D4" d="M101.825,17.807c1.619-1.209,1.662-3.14,0.942-3.755c3.058-0.307,4.888-0.093,8.767,1.219
			c0,0-4.021-0.625-9.267,6.392c0,0,0.521-1.452,1.455-3.084c0,0-0.653,0.524-1.061,1.217c0,0-0.111-0.57,0.125-1.189
			c0,0-1.441,1.548-3.354,7.018c-1.225,3.501-3.131,4.578-3.131,4.578s-1.938-1.948-4.319-1.319c0,0,2.772,0.774,2.26,3.971
			c-0.517,3.197-3.916,2.448-3.916,2.448s2.447-0.258,2.724-2.255c0.274-1.998-1.455-2.492-1.455-2.492s-0.779-0.199-0.59-1.186
			c0,0-0.533,0.385-1.25,0.364c0.295-0.675,0.83-1.618,1.637-1.981c1.313-0.592,2.25-0.306,3.596-1.477
			c1.344-1.171,2.418-4.163,3.898-5.784c0,0-0.353,1.367-0.688,2.977C98.196,23.466,99.943,19.214,101.825,17.807z"/>
		
			<radialGradient id="SVGID_5_" cx="363.9219" cy="578.2358" r="37.1423" gradientTransform="matrix(1 0 0 1 -328.5391 -509)" gradientUnits="userSpaceOnUse">
			<stop  offset="0" style="stop-color:#B2D235"/>
			<stop  offset="0.8184" style="stop-color:#62A73B"/>
		</radialGradient>
		<path fill="url(#SVGID_5_)" d="M60.637,113.847c0.19-1.891,0.424-3.555,0.515-5.229c0.274-5.105-1.403-9.67-4.106-13.885
			c-3.963-6.181-9.428-10.754-15.775-14.3c-4.41-2.463-8.911-4.763-13.358-7.163c-4.809-2.594-9.366-5.551-13.125-9.576
			c-3.731-3.994-6.413-8.588-7.005-14.096c-0.525-4.892,0.555-9.5,3.396-13.606c4.123-5.957,9.897-9.294,16.902-10.74
			c5.461-1.127,10.822-0.676,16.147,0.844c-0.831,0-1.663,0.025-2.493-0.004c-7.938-0.274-15.434,1.113-21.757,6.271
			c-4.497,3.668-6.862,8.461-6.351,14.379c0.316,3.671,1.894,6.877,4.159,9.754c3.906,4.955,9.202,8.085,14.567,11.141
			c5.236,2.982,10.515,5.902,15.635,9.075c5.383,3.336,9.702,7.771,12.461,13.563c1.331,2.793,2.141,5.726,2.499,8.824
			C63.541,104.211,62.463,108.998,60.637,113.847z"/>
		<g>
			<path fill="#6CBE45" d="M61.059,24.758c1.763,2.866,3.148,5.903,3.76,9.235c0.488,2.654,0.555,5.374,1.673,7.92
				c1.192,2.714,2.718,5.197,4.563,7.494c1.604,1.998,2.025,4.224,1.32,6.65c-0.437,1.503-1.043,2.956-1.468,4.463
				c-0.623,2.211-2.053,3.274-4.312,3.434c-0.838,0.06-1.688,0.283-2.479,0.58c-1.72,0.646-3.136,0.061-4.497-0.922
				c-0.932-0.672-1.058-1.732-1.054-2.705c0.008-1.848-1.045-2.93-2.431-3.795c-1.541-0.965-3.203-1.75-4.703-2.772
				c-2.209-1.508-3.784-3.621-5.014-5.97c-0.293-0.56-0.57-0.821-1.209-1.006c-2.924-0.846-5.029-2.816-6.77-5.25
				c-2.223,2.662-3.13,5.648-2.227,9.221c-2.197-1.241-3.107-3.167-3.509-5.346c-0.833-4.537,0.421-8.428,3.813-11.604
				c0.24-0.225,0.384-0.573,0.52-0.887c0.815-1.88,1.939-3.499,4.04-4.771c-2.25,3.903-2.509,7.565-0.008,11.122
				c2.446,3.479,5.987,4.827,10.3,5.014c-0.766,0.434-1.365,0.772-1.966,1.113c0.938,2.61,2.826,4.407,4.819,6.042
				c1.771,1.451,3.727,2.681,5.635,3.955c0.6,0.4,0.834,0.703,0.71,1.532c-0.197,1.313-0.427,2.797,0.88,3.788
				c0.364,0.274,0.932,0.495,1.359,0.432c1.301-0.188,2.576-0.546,3.867-0.806c0.955-0.193,1.506-0.732,1.683-1.695
				c0.26-1.433,0.562-2.857,0.813-4.291c0.248-1.408-0.391-2.57-1.096-3.71c-1.449-2.341-2.939-4.661-4.316-7.044
				c-1.07-1.854-1.604-3.882-1.543-6.053c0.041-1.482-0.031-2.968,0.018-4.45C62.338,30.644,62.023,27.675,61.059,24.758z"/>
			<path fill="#6CBE45" d="M52.571,20.762c-2.088-0.689-4.467-1.312-6.712-2.251c-3.953-1.656-7.668-1.438-11.313,0.989
				c0.688-1.552,3.229-3.162,5.23-3.579c2.68-0.557,5.177,0.307,7.738,0.771c1.291,0.234,2.646,0.563,3.916,0.399
				c2.826-0.365,4.168-2.383,4.834-5.139c2.166,1.476,3.932,3.215,4.191,5.896c0.25,2.601,1.2,4.687,3.59,5.846
				c1.75,0.849,1.449,2.989,0.207,4.296c-0.031-0.259-0.043-0.458-0.076-0.654c-0.232-1.4-0.68-2.489-2.275-3.019
				c-2.014-0.669-3.706-1.9-4.211-4.398c-1.253,1.737-2.809,2.759-4.747,2.861c-1.416,0.074-2.862-0.12-4.271-0.344
				c-2.035-0.323-4.047-0.781-6.049-1.328C46.082,21.378,49.516,21.771,52.571,20.762z"/>
			<path fill="#6CBE45" d="M43.957,14.248c0.293-3.387,2.289-5.651,5.195-6.532c2.102-0.636,4.298-0.963,6.41-1.573
				c1.371-0.396,2.667-1.051,4.01-1.595c-0.352,2.299-1.544,4.197-3.333,5.712c-1.503,1.273-3.134,2.396-4.632,3.674
				c-0.695,0.592-1.209,1.397-1.813,2.114c-0.354-1.455,0.508-3.348,2.741-6.048C50.553,9.67,46.342,11.726,43.957,14.248z"/>
			<path fill="#6CBE45" d="M65.232,8.279c-1.598,2.176-1.898,5.175-4.582,6.724c0.295-0.942,0.59-1.884,0.885-2.825
				c-1.056,0-2.102,0-2.838,0c1.298-1.023,2.725-2.223,4.238-3.304c0.605-0.433,1.396-0.606,2.103-0.897
				C65.104,8.077,65.17,8.178,65.232,8.279z"/>
		</g>
		<path fill="#6CBE45" d="M31.661,30.235c-1.378,0-2.497,1.117-2.497,2.496c0,1.379,1.118,2.496,2.497,2.496
			c1.38,0,2.496-1.117,2.496-2.496C34.157,31.352,33.039,30.235,31.661,30.235z M31.803,34.034c-0.685,0-1.237-0.554-1.237-1.237
			c0-0.684,0.553-1.237,1.237-1.237c0.683,0,1.236,0.554,1.236,1.237S32.485,34.034,31.803,34.034z"/>
		
			<radialGradient id="SVGID_6_" cx="-252.7969" cy="602.8257" r="29.3667" gradientTransform="matrix(-1 0 0 1 -223.9531 -509)" gradientUnits="userSpaceOnUse">
			<stop  offset="0" style="stop-color:#B2D235"/>
			<stop  offset="0.8184" style="stop-color:#62A73B"/>
		</radialGradient>
		<path fill="url(#SVGID_6_)" d="M50.159,111.838c0.986-5.677-1.726-9.755-5.944-13.211c-4.834-3.958-10.487-6.479-15.976-9.304
			c-4.959-2.549-9.997-4.98-14.442-8.405c-3.838-2.957-7.154-6.326-8.402-11.243c-0.543-2.141-0.594-4.283-0.285-6.665
			c0.445,1.204,0.818,2.224,1.201,3.238c1.273,3.374,3.638,5.911,6.371,8.125c5.438,4.405,11.841,7.077,18.121,9.958
			c5.224,2.396,10.479,4.722,15.224,8.027c4.522,3.147,8.251,6.928,9.842,12.396c0.802,2.751,0.988,5.526,0.677,8.399
			c-0.433,3.992-1.623,7.73-3.177,11.485c-0.979-1.604-1.843-3.192-2.87-4.672c-3.07-4.412-7.082-7.787-11.71-10.481
			c-5.585-3.254-11.712-5.221-17.673-7.601c-3.634-1.451-7.26-3.026-10.646-4.978C5.225,93.888,2.01,89.3,1.322,83.152
			C1.168,81.771,1.111,80.377,1,78.888c1.094,2.082,1.991,4.096,3.155,5.943c2.664,4.226,6.597,7.004,11.155,8.781
			c4.904,1.912,9.933,3.513,14.906,5.248c4.85,1.694,9.498,3.83,13.535,7.035C46.021,107.701,48.022,109.838,50.159,111.838z"/>
		<g>
			
				<radialGradient id="SVGID_7_" cx="-235.4009" cy="551.5308" r="0.5015" gradientTransform="matrix(-1 0 0 1 -223.9531 -509)" gradientUnits="userSpaceOnUse">
				<stop  offset="0" style="stop-color:#B2D235"/>
				<stop  offset="0.8184" style="stop-color:#62A73B"/>
			</radialGradient>
			<path fill="url(#SVGID_7_)" d="M11.221,43.203c0.213-0.867,0.457-1.344,0.457-1.344L11.221,43.203z"/>
			
				<radialGradient id="SVGID_8_" cx="-258.8975" cy="587.5249" r="31.3311" gradientTransform="matrix(-1 0 0 1 -223.9531 -509)" gradientUnits="userSpaceOnUse">
				<stop  offset="0" style="stop-color:#B2D235"/>
				<stop  offset="0.8184" style="stop-color:#62A73B"/>
			</radialGradient>
			<path fill="url(#SVGID_8_)" d="M57.01,94.734c-3.963-6.179-9.428-10.752-15.775-14.298c-4.411-2.463-8.912-4.763-13.359-7.163
				c-4.809-2.594-9.365-5.55-13.125-9.576c-3.142-3.365-5.525-7.164-6.557-11.567l3.027-8.927
				c-0.971,3.97-1.272,16.246,25.55,29.856c32.687,16.585,23.831,40.788,23.831,40.788c0.189-1.891,0.423-3.555,0.513-5.229
				C61.391,103.513,59.713,98.951,57.01,94.734z"/>
		</g>
		
			<radialGradient id="SVGID_9_" cx="-253.0088" cy="605.103" r="28.0248" gradientTransform="matrix(-1 0 0 1 -223.9531 -509)" gradientUnits="userSpaceOnUse">
			<stop  offset="0" style="stop-color:#B2D235"/>
			<stop  offset="0.4274" style="stop-color:#62A73B"/>
		</radialGradient>
		<path fill="url(#SVGID_9_)" d="M6.311,70.804c1.273,3.374,3.638,5.912,6.371,8.126c5.438,4.406,11.841,7.078,18.121,9.958
			c5.225,2.396,10.479,4.725,15.224,8.028c4.522,3.149,8.251,6.929,9.842,12.396c0.353,1.206,0.565,2.42,0.688,3.641
			c-0.006,0.068-0.006,0.137-0.014,0.203c-0.432,3.992-1.623,7.731-3.176,11.486c-0.979-1.604-1.843-3.193-2.87-4.672
			c-3.069-4.412-7.083-7.787-11.71-10.482c-5.585-3.254-11.712-5.22-17.672-7.6c-3.635-1.451-7.261-3.027-10.646-4.977
			c-4.84-2.785-7.924-6.928-8.914-12.381c0.856,1.694,1.641,3.336,2.602,4.86c2.664,4.226,6.596,7.003,11.155,8.781
			c4.905,1.913,9.933,3.511,14.907,5.249c4.849,1.693,9.496,3.831,13.535,7.033c2.268,1.801,4.269,3.938,6.405,5.938
			c0.288-1.659,0.252-3.182-0.036-4.592c0.012,0.013,0.023,0.022,0.036,0.034c0.986-5.678-1.726-9.756-5.944-13.211
			c-4.834-3.958-10.488-6.479-15.976-9.305c-4.959-2.549-9.997-4.979-14.442-8.404c-3.838-2.957-7.154-6.326-8.402-11.243
			c-0.143-0.562-0.246-1.124-0.324-1.69c0.016-0.141,0.021-0.274,0.039-0.418C5.555,68.771,5.928,69.791,6.311,70.804z"/>
		<path fill="#6CBE45" d="M58.971,31.011c0.195-0.378,0.267-0.808,0.261-1.231c-0.022-0.844-0.507-1.636-1.142-2.168
			c-0.758,0.454-1.574,0.787-2.399,1.072c-0.42,0.149-0.843,0.288-1.271,0.413c-0.42,0.128-0.863,0.248-1.281,0.342l0.41,0.69
			c0.166,0.212,0.303,0.446,0.485,0.641c0.347,0.407,0.759,0.748,1.218,1.005c0.461,0.253,0.976,0.398,1.5,0.437
			c0.512,0.04,1.045-0.016,1.527-0.173c0.125-0.16,0.259-0.313,0.379-0.476C58.76,31.378,58.902,31.211,58.971,31.011z
			 M57.577,30.17c-0.39,0-0.706-0.316-0.706-0.706s0.316-0.706,0.706-0.706s0.705,0.316,0.705,0.706S57.967,30.17,57.577,30.17z"/>
		
			<radialGradient id="SVGID_10_" cx="475.0908" cy="603.8257" r="0" gradientTransform="matrix(0.9742 0.2256 -0.2256 0.9742 -217.7338 -662.8923)" gradientUnits="userSpaceOnUse">
			<stop  offset="0" style="stop-color:#FFDF00"/>
			<stop  offset="1" style="stop-color:#FAA819"/>
		</radialGradient>
		<path fill="url(#SVGID_10_)" d="M108.877,32.534"/>
		<g>
			<g>
				<path fill="#F7941E" d="M118.857,34.368c0.133,0.312,0.531,0.482,0.826,0.324c0.301-0.144,0.404-0.533,0.268-0.815
					c-0.119-0.29-0.479-0.471-0.785-0.343C118.85,33.65,118.711,34.063,118.857,34.368z M118.857,34.368
					c-0.146-0.301-0.035-0.723,0.289-0.877c0.32-0.169,0.748,0.015,0.891,0.348c0.154,0.327,0.008,0.769-0.334,0.896
					C119.373,34.875,118.984,34.679,118.857,34.368z"/>
			</g>
		</g>
		<path fill="#F7941E" d="M119.174,34.306c0.11,0.155,0.319,0.194,0.467,0.084c0.146-0.109,0.176-0.325,0.063-0.481
			c-0.109-0.156-0.318-0.194-0.465-0.084C119.092,33.934,119.063,34.149,119.174,34.306z"/>
		
			<radialGradient id="SVGID_11_" cx="415.3438" cy="523.687" r="9.1061" gradientTransform="matrix(1 0 0 1 -328.5391 -509)" gradientUnits="userSpaceOnUse">
			<stop  offset="0" style="stop-color:#FFDF00"/>
			<stop  offset="0.8128" style="stop-color:#E78F1A"/>
		</radialGradient>
		<path fill="url(#SVGID_11_)" d="M79.262,6.88c0,0-3.531,6.954,4.037,9.798c5.276,1.983,6.537-1.832,13.51-0.798
			c0,0-3.133,0.167-3.689,2.061c0,0,2.9-1.808,3.662-0.609c1.227,1.928-2.17,3.929-2.752,5.162l0.582-1.232
			c0,0-5.883,2.734-12.891-1.617C74.745,15.314,75.809,8.697,79.262,6.88z"/>
		
			<linearGradient id="SVGID_12_" gradientUnits="userSpaceOnUse" x1="401.1494" y1="567.4741" x2="457.4785" y2="567.4741" gradientTransform="matrix(1 0 0 1 -328.5391 -509)">
			<stop  offset="0" style="stop-color:#E78F1A"/>
			<stop  offset="0.1173" style="stop-color:#FFD400"/>
			<stop  offset="0.8128" style="stop-color:#E78F1A"/>
		</linearGradient>
		<path fill="url(#SVGID_12_)" d="M119.834,26.2c0,0,6.76,0.08,9.104-5.644c0,0-2.796-1.762-6.043-1.167c0,0,4.198-2.696,2.45-6.582
			c-1.746-3.886-5.418-4.458-7.741-4.857c-2.32-0.397-11.996-0.317-14.147-4.854c0,0,0.211,1.869,1.784,3.474
			c1.104,1.13,1.728,1.706,4.351,2.694c4.451,1.678,8.463,2.968,8.082,4.412c-0.563,2.133-5.07-0.076-8.074-0.616
			c-0.814-0.146-1.635-0.237-2.441-0.268v-0.001c-0.037-0.001-0.072-0.001-0.107-0.001c-0.176-0.006-0.35-0.009-0.521-0.008
			c-6.721-0.028-11.285,2.581-11.285,2.581c4.602-1.222,8.404-1.389,10.381-1.369c1.592,0.137,3.549,0.489,5.83,1.262
			c0,0-3.902-0.765-9.156,6.282c0,0,0.523-1.458,1.461-3.097c0,0-0.655,0.526-1.063,1.222c0,0-0.111-0.571,0.125-1.193
			c0,0-1.443,1.555-3.361,7.046c-1.229,3.516-3.135,4.598-3.135,4.598s-1.938-1.954-4.32-1.321c0,0,2.773,0.774,2.258,3.984
			c-0.52,3.209-3.918,2.459-3.918,2.459s2.447-0.26,2.726-2.266c0.276-2.005-1.453-2.5-1.453-2.5s-0.78-0.2-0.59-1.19
			c0,0-1.492,1.084-2.845-0.47c0,0-1.036,0.153-2.299,2.29c0,0-0.41-3.018,4.504-4.846l-0.002-0.001
			c0.416-0.157,0.55-0.322,0.818-0.476c0.35-0.239,0.561-0.406,0.875-0.688c0.65-0.543,1.227-1.172,1.703-1.866
			c0.477-0.692,3.844-4.672,2.979-4.512c-0.512,0.659-2.924,3.529-3.474,4.115c-0.545,0.588-1.12,1.136-1.729,1.644l-0.225,0.194
			c-0.074,0.064-0.158,0.12-0.236,0.18l-0.469,0.363c-0.33,0.219-0.646,0.465-0.992,0.665c-0.074,0.05-0.154,0.099-0.238,0.145
			c-1.248-0.177-3.377-0.058-4.611,2.375c-0.607,1.391-1.074,5.141-1.111,6.01c-0.03,0.733,0.521,4.171,6.136,5.784
			c4.18,1.2,3.491,5.173,3.491,5.173s-10.85,1.342-14.205,11.428c0,0,10.757-9.162,32.22-7.024c0,0-3.938-3.047-10.853-3.858
			c0,0,0.221-0.033,0.601-0.099c2.187-0.364,4.078-0.854,5.717-1.44c2.492-0.842,5.084-2.07,6.481-3.785
			c0.896-0.852,1.58-1.742,2.107-2.635c0.256-0.915,0.564-1.54,0.564-1.54c-0.865,0.509-2.086,1.506-2.77,0.365
			c-0.687-1.14,0.696-1.748,0.282-2.395c-0.412-0.646-1.854-0.145-1.586-0.483c0.437-0.544,1.688-0.561,2.42-0.768
			c0.955-0.271-1.59-1.896-1.512-1.92c0.077-0.025,0.321-0.241,1.452,0.316c1.132,0.556,1.162,0.422,1.191,0.263
			c0.029-0.159-0.426-2.834,0.018-2.125c0.718,1.154,1.084,1.591,1.589,1.267c0.502-0.324,0.325-1.401,0.521-1.443
			c0.19-0.042,0.497,0.567,0.497,0.567c0.507,0.891,0.716-0.027,0.945-0.102c0.228-0.075,0.78-0.341,1.58,0.91
			c1.141,1.787-0.271,2.977-0.271,2.977s0.975,1.214-0.369,2.218c-0.176,0.131-0.347,0.208-0.51,0.247
			c2.053,2.972,3.024,6.453,2.682,10.451c-0.316,3.671-1.896,6.878-4.158,9.754c-3.906,4.955-9.203,8.085-14.57,11.142
			c-5.234,2.981-10.514,5.901-15.633,9.074c-5.385,3.336-9.703,7.771-12.463,13.563c-1.33,2.793-2.141,5.727-2.498,8.826
			c-0.592,5.104,0.486,9.893,2.313,14.741c-0.189-1.891-0.422-3.555-0.515-5.228c-0.274-5.106,1.401-9.67,4.106-13.887
			c3.961-6.18,9.427-10.754,15.773-14.297c4.41-2.464,8.912-4.764,13.357-7.164c4.811-2.594,9.367-5.551,13.125-9.576
			c3.729-3.994,6.414-8.588,7.006-14.096c0.24-2.256,0.139-4.449-0.316-6.563C127.221,38.499,125.264,32.75,119.834,26.2z
			 M109.202,20.179c0,0,2.154,0.131,2.392,1.338c0.291,1.478-0.914,1.621-0.914,1.621s0.09-1.601-1.486-1.801
			c-1.574-0.2-2.059,1.38-2.059,1.38c-0.313-0.585-0.277-0.934-0.277-0.934c-1.953,1.639-2.963,1.734-2.963,1.734
			c1.361-0.906,1.521-1.082,3.068-2.392c1.547-1.31,2.396-2.063,3.584-1.914c1.942,0.245,2.244,1.196,2.244,1.196
			C109.932,19.464,109.202,20.179,109.202,20.179z M121.73,34.465c-0.314-0.444-0.791-0.583-0.791-0.583
			c0.432-0.187,0.422-0.93,0.422-0.93c1.336,0.387,1.871,1.07,1.871,1.07C122.387,33.798,121.73,34.465,121.73,34.465z"/>
	</g>
</g>
</svg>
